<svg xmlns="http://www.w3.org/2000/svg" width="32" height="32" viewBox="0 0 32 32"><title>instagram</title><path d="M28.6 1H4.4C2.5 1 1 2.5 1 4.4v24.1c0 2 1.5 3.5 3.4 3.5h24.1c1.9 0 3.4-1.5 3.4-3.4V4.4C32 2.5 30.5 1 28.6 1zM16.5 26c5.3 0 9.5-4.3 9.5-9.5 0-.6-.1-1.1-.2-1.7h2.7v12.4c0 .7-.5 1.2-1.2 1.2H5.6c-.7 0-1.2-.5-1.2-1.2V14.8h2.7c-.1.6-.2 1.1-.2 1.7 0 5.2 4.3 9.5 9.6 9.5zm-6-9.5c0-3.3 2.7-6 6-6s6 2.7 6 6-2.7 6-6 6c-3.3-.1-6-2.7-6-6zm16.9-6.9h-2.8c-.7 0-1.2-.5-1.2-1.2V5.6c0-.7.5-1.2 1.2-1.2h2.8c.7 0 1.2.5 1.2 1.2v2.8c0 .7-.6 1.2-1.2 1.2z"/></svg>